<mxfile host="app.diagrams.net" modified="2023-04-28T09:19:33.487Z" agent="Mozilla/5.0 (Windows NT 10.0; Win64; x64; rv:109.0) Gecko/20100101 Firefox/112.0" etag="NMt4TTjL_5vWF-yXgYml" version="21.2.3" type="device">
  <diagram name="Sayfa -1" id="JAzYYjnDF5boY5DNYUMq">
    <mxGraphModel dx="612" dy="561" grid="1" gridSize="10" guides="1" tooltips="1" connect="1" arrows="1" fold="1" page="1" pageScale="1" pageWidth="827" pageHeight="1169" math="0" shadow="0">
      <root>
        <mxCell id="0" />
        <mxCell id="1" parent="0" />
        <mxCell id="RmNEXpCrsQ4Cx-sc4Pay-1" value="" style="shape=ellipse;container=1;horizontal=1;horizontalStack=0;resizeParent=1;resizeParentMax=0;resizeLast=0;html=1;dashed=1;collapsible=0;" vertex="1" parent="1">
          <mxGeometry x="290" y="100" width="510" height="360" as="geometry" />
        </mxCell>
        <mxCell id="RmNEXpCrsQ4Cx-sc4Pay-2" value="&lt;b&gt;TrainingList&lt;/b&gt;" style="html=1;strokeColor=none;fillColor=none;align=center;verticalAlign=middle;spacingLeft=4;spacingRight=4;rotatable=0;points=[[0,0.5],[1,0.5]];resizeWidth=1;whiteSpace=wrap;" vertex="1" parent="RmNEXpCrsQ4Cx-sc4Pay-1">
          <mxGeometry y="12.521739130434783" width="510" height="46.95652173913044" as="geometry" />
        </mxCell>
        <mxCell id="RmNEXpCrsQ4Cx-sc4Pay-3" value="" style="line;strokeWidth=1;fillColor=none;rotatable=0;labelPosition=right;points=[];portConstraint=eastwest;dashed=1;resizeWidth=1;" vertex="1" parent="RmNEXpCrsQ4Cx-sc4Pay-1">
          <mxGeometry x="73.66666666666667" y="46.95652173913044" width="362.6666666666667" height="12.521739130434783" as="geometry" />
        </mxCell>
        <mxCell id="RmNEXpCrsQ4Cx-sc4Pay-4" value=":TrainingListUI" style="html=1;align=center;verticalAlign=middle;rotatable=0;whiteSpace=wrap;" vertex="1" parent="RmNEXpCrsQ4Cx-sc4Pay-1">
          <mxGeometry width="100" height="30" relative="1" as="geometry">
            <mxPoint x="30" y="110" as="offset" />
          </mxGeometry>
        </mxCell>
        <mxCell id="RmNEXpCrsQ4Cx-sc4Pay-5" value="" style="edgeStyle=none;endArrow=none;verticalAlign=middle;labelBackgroundColor=none;endSize=12;html=1;align=left;endFill=0;spacingLeft=4;rounded=0;exitX=1;exitY=0.5;exitDx=0;exitDy=0;entryX=0;entryY=0.5;entryDx=0;entryDy=0;" edge="1" parent="RmNEXpCrsQ4Cx-sc4Pay-1" source="RmNEXpCrsQ4Cx-sc4Pay-4" target="RmNEXpCrsQ4Cx-sc4Pay-6">
          <mxGeometry x="0.5638" y="93" relative="1" as="geometry">
            <mxPoint x="315.4545454545455" y="220" as="targetPoint" />
            <mxPoint as="offset" />
          </mxGeometry>
        </mxCell>
        <mxCell id="RmNEXpCrsQ4Cx-sc4Pay-6" value=":TrainingList" style="html=1;align=center;verticalAlign=middle;rotatable=0;whiteSpace=wrap;" vertex="1" parent="RmNEXpCrsQ4Cx-sc4Pay-1">
          <mxGeometry width="100" height="30" relative="1" as="geometry">
            <mxPoint x="370" y="110" as="offset" />
          </mxGeometry>
        </mxCell>
        <mxCell id="RmNEXpCrsQ4Cx-sc4Pay-8" value=":ExerciseList" style="html=1;align=center;verticalAlign=middle;rotatable=0;whiteSpace=wrap;" vertex="1" parent="RmNEXpCrsQ4Cx-sc4Pay-1">
          <mxGeometry x="300" y="220" width="100" height="30" as="geometry" />
        </mxCell>
        <mxCell id="RmNEXpCrsQ4Cx-sc4Pay-12" value="" style="edgeStyle=none;endArrow=none;verticalAlign=middle;labelBackgroundColor=none;endSize=12;html=1;align=left;endFill=0;spacingLeft=4;rounded=0;exitX=0.4;exitY=0;exitDx=0;exitDy=0;entryX=0.5;entryY=1;entryDx=0;entryDy=0;exitPerimeter=0;" edge="1" parent="RmNEXpCrsQ4Cx-sc4Pay-1" source="RmNEXpCrsQ4Cx-sc4Pay-8" target="RmNEXpCrsQ4Cx-sc4Pay-6">
          <mxGeometry x="0.5638" y="93" relative="1" as="geometry">
            <mxPoint x="265" y="240" as="sourcePoint" />
            <mxPoint x="380" y="150" as="targetPoint" />
            <mxPoint as="offset" />
          </mxGeometry>
        </mxCell>
      </root>
    </mxGraphModel>
  </diagram>
</mxfile>
